<?xml version="1.0" ?><svg height="512" id="svg2" version="1.1" width="512" xmlns="http://www.w3.org/2000/svg" xmlns:cc="http://creativecommons.org/ns#" xmlns:dc="http://purl.org/dc/elements/1.1/" xmlns:inkscape="http://www.inkscape.org/namespaces/inkscape" xmlns:rdf="http://www.w3.org/1999/02/22-rdf-syntax-ns#" xmlns:sodipodi="http://sodipodi.sourceforge.net/DTD/sodipodi-0.dtd" xmlns:svg="http://www.w3.org/2000/svg"><defs id="defs4"/><g id="layer1" transform="translate(0,-540.3622)"><path d="m 75.859468,658.75631 c -5.235845,5.2e-4 -10.439249,2.15615 -14.14155,5.85845 -3.702301,3.7023 -5.857926,8.90571 -5.85845,14.14155 -0.157814,77.10662 0,154.52934 0,231.9375 -1.022441,6.1776 1.063579,12.79078 5.44554,17.26366 4.38196,4.47287 10.950917,6.69423 17.14821,5.79884 l 354.781252,0 c 6.21396,0.9115 12.80807,-1.31286 17.20022,-5.80208 4.39216,-4.48922 6.47187,-11.13037 5.42478,-17.32292 0.0881,-77.0193 0,-155.69923 0,-231.875 -5.2e-4,-5.23584 -2.15615,-10.43925 -5.85845,-14.14155 -3.7023,-3.7023 -8.90571,-5.85793 -14.14155,-5.85845 z m 31.093752,40 297.8125,0 c -12.52783,10.2733 -30.38746,24.45923 -50.25,38.75 -18.65599,13.42267 -38.89162,26.74081 -57.03125,36.375 -18.13963,9.63419 -34.83074,14.875 -41.625,14.875 -6.79426,0 -23.48537,-5.24081 -41.625,-14.875 -18.13963,-9.63419 -38.37526,-22.95233 -57.03125,-36.375 -19.86255,-14.29077 -37.72218,-28.4767 -50.25,-38.75 z m -11.093752,42.4375 c 11.020092,8.74614 24.039202,18.73669 38.000002,28.78125 16.07244,11.56385 33.36872,23.21558 50.5,33.09375 l -88.500002,69.53125 z m 320.000002,0 0,131.40625 -88.5,-69.53125 c 17.13128,-9.87817 34.42755,-21.5299 50.5,-33.09375 13.9608,-10.04456 26.97991,-20.03511 38,-28.78125 z m -191.59375,81.375 c 10.49119,3.83939 20.90668,6.1875 31.59375,6.1875 10.68707,0 21.10256,-2.34811 31.59375,-6.1875 l 90.59375,71.1875 -244.375,0 z" id="rect3851" style="font-size:medium;font-style:normal;font-variant:normal;font-weight:normal;font-stretch:normal;text-indent:0;text-align:start;text-decoration:none;line-height:normal;letter-spacing:normal;word-spacing:normal;text-transform:none;direction:ltr;block-progression:tb;writing-mode:lr-tb;text-anchor:start;baseline-shift:baseline;color:#000000;fill:#222222;fill-opacity:1;stroke:none;stroke-width:40;marker:none;visibility:visible;display:inline;overflow:visible;enable-background:accumulate;font-family:Sans;-inkscape-font-specification:Sans"/></g></svg>